<?xml version="1.0" encoding="UTF-8"?>
<svg width="24px" height="18px" viewBox="0 0 24 18" version="1.1" xmlns="http://www.w3.org/2000/svg" xmlns:xlink="http://www.w3.org/1999/xlink">
    <!-- Generator: Sketch 63 (92445) - https://sketch.com -->
    <title>arrow-thin-left</title>
    <desc>Created with Sketch.</desc>
    <g id="Beachbody-Kampagne" stroke="none" stroke-width="1" fill="none" fill-rule="evenodd">
        <g id="Beachbody-2020-–-1440-Austria" transform="translate(-160.000000, -4293.000000)" fill="#FFFFFF">
            <path d="M184,4302 C184,4302.68555 183.434419,4303.24138 182.736838,4303.24138 L164.306988,4303.24138 L170.031007,4308.8819 C170.52364,4309.36759 170.522693,4310.15338 170.028796,4310.63752 C169.782164,4310.87928 169.459426,4311 169.136688,4311 C168.813003,4311 168.489002,4310.87834 168.242369,4310.63534 L160.368764,4302.87672 C159.877079,4302.39197 159.877079,4301.60803 160.368764,4301.12328 L168.242369,4293.36466 C168.735002,4292.87928 169.534584,4292.87835 170.028796,4293.36248 C170.522693,4293.84662 170.52364,4294.63241 170.031007,4295.1181 L164.306988,4300.75862 L182.736838,4300.75862 C183.434419,4300.75862 184,4301.31445 184,4302" id="arrow-thin-left"></path>
        </g>
    </g>
</svg>