<?xml version="1.0" encoding="UTF-8"?>
<svg width="198px" height="274px" viewBox="0 0 198 274" version="1.1" xmlns="http://www.w3.org/2000/svg" xmlns:xlink="http://www.w3.org/1999/xlink">
    <!-- Generator: Sketch 61 (89581) - https://sketch.com -->
    <title>mcfit-logo</title>
    <desc>Created with Sketch.</desc>
    <g id="Page-1" stroke="none" stroke-width="1" fill="none" fill-rule="evenodd">
        <g id="Group-13" fill="#FEFEFE">
            <path d="M74.1299,235.649 C81.0649,235.649 87.4759,239.415 90.8619,245.483 L91.4959,246.621 L80.8789,249.295 L80.4749,248.819 C78.9519,247.013 76.6829,246.017 74.0879,246.017 C69.2899,246.017 65.5319,249.889 65.5319,254.833 C65.5319,259.692 69.2899,263.497 74.0879,263.497 C77.1349,263.497 79.6319,262.248 81.1219,259.985 L81.5089,259.391 L91.9429,261.969 L91.4119,263.076 C88.2429,269.695 81.4599,273.97 74.1299,273.97 C63.5699,273.97 54.9769,265.374 54.9769,254.807 C54.9769,244.242 63.5699,235.649 74.1299,235.649 Z M13.4881,227.0443 L25.9951,247.7083 L38.5011,227.0443 L48.8961,227.0443 L48.8961,272.9193 L38.1001,272.9193 L38.1001,245.6473 L28.8361,261.6143 L23.0551,261.6143 L13.7881,245.6473 L13.7881,272.9193 L2.8521,272.9193 L2.8521,227.0443 L13.4881,227.0443 Z M131.2318,227.0443 L131.2318,237.4183 L109.4308,237.4183 L109.4308,246.3233 L126.3588,246.3233 L126.3588,256.4623 L109.4308,256.4623 L109.4308,272.9183 L98.2368,272.9183 L98.2368,227.0443 L131.2318,227.0443 Z M149.724,227.044 L149.724,272.919 L138.438,272.919 L138.438,227.044 L149.724,227.044 Z M194.1611,227.0443 L194.1611,237.4183 L180.1061,237.4953 L180.1421,272.9183 L169.2211,272.9183 L169.2101,237.4183 L155.2791,237.4183 L155.2791,227.0443 L194.1611,227.0443 Z M50.3199,117.4795 L63.5039,130.9025 C64.3949,131.8165 65.2859,132.7305 66.1249,133.6455 C67.1219,134.7395 68.1719,135.9295 69.4289,137.3935 C71.8089,140.1735 73.8759,142.7135 75.7459,145.1565 C76.8739,146.6335 77.8269,147.9425 78.6599,149.1595 C79.1199,149.8315 79.5659,150.5095 79.9839,151.1865 L79.9839,151.1865 L80.5769,152.1885 C80.7159,152.4435 80.8539,152.7465 80.9859,153.0865 C81.4759,154.3535 81.7639,155.8225 81.8189,157.3325 C81.8719,158.7745 81.7119,160.2635 81.3459,161.7595 C81.0019,163.1635 80.4629,164.6005 79.7459,166.0305 C79.4069,166.7025 79.0219,167.3845 78.6059,168.0455 L78.6059,168.0455 L77.2439,170.1235 C75.3619,172.9495 73.4139,175.6915 71.4529,178.2765 C67.1269,183.9885 62.8429,188.9115 58.3549,193.3295 C55.5709,196.0865 53.2219,198.1975 50.9599,199.9755 C50.3159,200.4865 49.6579,200.9755 48.9859,201.4535 C48.3069,201.9395 47.6219,202.3985 46.9509,202.8175 C45.4739,203.7365 41.7909,205.7555 40.3889,206.3175 C40.3589,206.3285 40.2689,206.3615 40.1499,206.4045 C37.8479,206.5715 35.5219,206.4155 33.6899,205.7525 C31.0199,204.7865 29.1729,202.8565 28.0659,200.2735 C25.8999,195.2235 26.2889,186.8465 27.1929,180.3995 C28.9759,167.6875 32.6609,156.2955 36.7919,145.6435 C40.6529,135.6845 45.3569,126.3205 50.3199,117.4795 L50.3199,117.4795 Z M21.8989,80.5633564 C28.9679,80.5765 36.0539,80.6435 43.1119,80.7525 C44.7999,80.7935 46.4839,81.0655 48.1259,81.5155 C49.7739,81.9825 51.4279,82.5665 53.0359,83.2155 C56.2639,84.5175 59.3719,86.1365 62.4829,87.8055 L64.8229,89.0615 L66.0029,89.6835 L67.1419,90.2755 L71.7419,92.9225 L80.9499,98.2065 L99.3819,108.7425 L108.5999,114.0085 L109.1759,114.3375 L109.2279,114.3655 C109.2429,114.3765 109.2639,114.3885 109.2629,114.3885 L109.4029,114.4795 L109.6819,114.6585 L110.7969,115.3795 L113.0239,116.8185 C114.5079,117.7785 115.9849,118.7415 117.4529,119.7175 C120.3859,121.6705 123.2769,123.6715 126.0649,125.7925 C126.7599,126.3215 127.4549,126.8605 128.1319,127.4015 L129.1559,128.2295 L130.1659,129.0655 C131.4979,130.1855 132.7939,131.3445 133.9639,132.5695 C134.1029,132.7115 134.2689,132.8945 134.4049,133.0395 L134.8469,133.5245 C135.1399,133.8465 135.4279,134.1705 135.7109,134.4975 C136.2769,135.1485 136.8209,135.8105 137.3309,136.4895 C138.3499,137.8455 139.2369,139.2785 139.8769,140.7925 C140.5179,142.3035 140.9009,143.8975 140.9479,145.5045 C140.9729,146.3065 140.9159,147.1125 140.7819,147.9085 C140.7669,147.9995 140.7469,148.0915 140.7299,148.1815 C140.0819,151.0205 138.8459,153.5185 137.4229,155.7745 C133.1259,162.5905 127.0469,167.4875 120.8939,172.4985 C116.7549,175.8695 112.3079,178.9745 104.8999,183.2575 C78.8739,198.3005 55.1409,203.6715 46.5929,205.3515 C47.1619,205.0265 47.6579,204.7335 48.0089,204.5145 C48.7159,204.0735 49.4369,203.5915 50.1489,203.0815 C50.8449,202.5855 51.5319,202.0745 52.1989,201.5465 C52.4629,201.3385 52.7289,201.1255 52.9959,200.9085 C55.4819,199.1375 57.8739,197.2315 60.1459,195.1905 C65.1849,190.6125 69.7409,185.5255 73.9319,180.1755 C76.0239,177.4955 78.0279,174.7475 79.9509,171.9465 L80.6699,170.8905 L81.0239,170.3655 L81.3829,169.8165 C81.8559,169.0775 82.2989,168.3135 82.7009,167.5285 C83.5099,165.9575 84.1549,164.2875 84.5779,162.5505 C85.4249,159.0815 85.3799,155.3275 84.0569,151.8895 C83.8879,151.4605 83.6969,151.0355 83.4639,150.6095 L83.2929,150.3095 L83.1279,150.0265 L82.7899,149.4685 C82.3349,148.7295 81.8619,148.0095 81.3779,147.3005 C80.4089,145.8845 79.3979,144.5105 78.3649,143.1555 C76.2959,140.4495 74.1439,137.8245 71.9369,135.2455 C70.8319,133.9555 69.7159,132.6785 68.5659,131.4165 C68.2779,131.1015 67.9849,130.7835 67.6859,130.4705 L66.8019,129.5535 L65.0319,127.7355 L57.9309,120.5055 L54.3749,116.8975 L52.5959,115.0945 C51.9989,114.4845 51.3749,113.8805 50.7579,113.2965 C48.2759,110.9575 45.7379,108.7205 43.1889,106.4925 C41.9149,105.3805 40.6329,104.2775 39.3419,103.1835 L37.4059,101.5445 L36.4329,100.7315 L35.9439,100.3245 L35.6989,100.1235 L35.5759,100.0215 L35.5139,99.9705 L35.4819,99.9445 C35.4769,99.9395 35.4739,99.9375 35.4719,99.9365 L35.470025,99.935 C35.4719,99.9355 35.4779,99.9395 35.4619,99.9275 C34.8089,99.3205 34.1619,98.7485 33.5019,98.1735 C32.8289,97.5875 32.1509,97.0085 31.4639,96.4405 C30.0929,95.2995 28.6949,94.1935 27.2729,93.1165 C25.8459,92.0485 24.3959,91.0095 22.9209,90.0065 C21.4419,89.0085 19.9369,88.0475 18.3989,87.1385 C16.8639,86.2285 15.2959,85.3675 13.6829,84.5935 C13.3879,84.4515 13.0899,84.3165 12.7919,84.1805 C11.3759,83.4475 10.0559,82.8525 8.7909,82.3885 C7.9549,82.0855 6.5279,81.8405 5.2409,81.6645 C6.4219,80.9955 7.9789,80.8665 9.9859,80.7865 C11.5329,80.7235 13.5069,80.6555 15.7179,80.5825 C17.7769,80.5665 19.8379,80.5633564 21.8989,80.5633564 Z M176.4189,0.0825 C177.1879,-0.0295 177.9899,-0.0385 178.8189,0.1255 C180.3519,0.4295 181.6059,1.3325 182.6009,2.4035 C184.5319,4.4835 185.9129,7.3425 187.0119,10.1595 C189.3099,16.0455 190.8199,22.7005 192.0529,29.4525 C195.8209,50.0985 197.4969,72.7415 197.6279,96.7825 C197.6709,104.6485 197.8219,112.8185 197.820905,120.9225 C197.8199,128.9085 197.4149,156.9095 196.9979,162.6585 C196.8109,165.2335 196.8989,169.2035 194.1859,168.0875 C193.1829,167.6745 192.1219,166.8485 191.1319,166.0995 C190.1499,165.3565 170.0429,148.6795 161.0789,140.6995 C157.6449,137.6435 153.3109,134.6365 150.9959,130.5685 C149.7759,128.4265 148.8709,125.9515 147.9409,123.5395 C141.5629,106.9785 135.3469,90.2395 129.5109,73.3695 L129.5109,73.3695 L129.5999,73.1955 L130.0549,72.3005 L130.5269,71.3995 L131.4749,69.5975 L139.0789,55.1925 C141.6139,50.3915 144.1669,45.6005 146.7319,40.8205 C147.9389,38.5865 149.1549,36.3575 150.3999,34.1535 C150.5709,33.8625 150.7409,33.5725 150.9129,33.2825 C151.2589,32.6995 151.6079,32.1185 151.9639,31.5405 L151.9639,31.5405 L153.6969,28.7305 C154.1869,27.9355 154.6769,27.1395 155.1769,26.3445 C158.3319,21.2735 161.3179,16.8735 164.3059,12.8935 C165.1409,11.7845 165.9799,10.7065 166.7989,9.6895 C167.2229,9.1645 167.6539,8.6465 168.0939,8.1295 C168.5249,7.6145 168.9669,7.1075 169.4159,6.6075 C169.8659,6.1075 170.3259,5.6195 170.7949,5.1365 C171.2589,4.6575 171.7319,4.1905 172.2249,3.7365 C172.4329,3.5445 173.0739,2.9155 173.8739,2.1325 C174.3899,1.6275 175.0679,0.9615 175.7409,0.3075 C175.7679,0.2975 175.7929,0.2835 175.8189,0.2735 C176.0179,0.2005 176.2179,0.1385 176.4189,0.0825 Z M3.4949,83.4645 C5.3369,83.6665 7.2709,83.9645 8.1059,84.2675 C9.5369,84.7925 11.0479,85.4915 12.7259,86.4045 C14.1409,87.1765 15.5849,88.0555 17.1379,89.0895 C18.5089,90.0085 19.8919,91.0015 21.3689,92.1265 C22.7119,93.1435 24.0869,94.2365 25.4589,95.3795 C26.7349,96.4315 28.0379,97.5445 29.4389,98.7785 C30.4569,99.6785 33.2099,102.2425 34.3389,103.2975 C34.3599,105.4295 34.4079,109.4235 34.4649,111.4705 C34.5669,115.1365 34.9109,118.8575 33.4469,121.1645 C32.7749,122.2225 31.8759,123.1825 31.0229,124.1695 C25.0569,131.0735 7.9409,150.1045 5.2839,152.9155 C4.5749,153.6645 2.2609,156.5295 1.5509,154.3695 C1.1059,153.0155 1.0719,151.2205 0.9699,149.5705 C0.24274,137.87616 0.0169088,112.657467 0.00063688,111.60069 L-0.0001,111.5665 C0.1899,102.3125 0.1159,93.5625 2.1809,86.5545 C2.5239,85.3875 2.9519,84.3385 3.4949,83.4645 Z M169.4109,2.7145 C169.0559,3.0535 168.6979,3.3925 168.3579,3.7445 C167.8729,4.2445 167.3959,4.7515 166.9299,5.2695 C166.4649,5.7855 166.0089,6.3105 165.5649,6.8385 C165.1189,7.3655 164.6759,7.8965 164.2419,8.4345 C163.4079,9.4685 162.5559,10.5635 161.7069,11.6915 C158.6839,15.7205 155.6649,20.1675 152.4819,25.2825 C151.9809,26.0795 151.4869,26.8815 150.9939,27.6825 L150.9939,27.6825 L149.2619,30.4915 C148.8989,31.0795 148.5439,31.6695 148.1919,32.2615 C146.7669,34.6645 145.3849,37.0935 144.1059,39.3595 C141.5529,43.8725 139.1109,48.3415 136.2299,53.6665 C133.9349,57.9365 131.2289,62.9865 128.5629,68.0645 L128.5629,68.0645 L124.8199,75.3425 C123.5929,77.7695 122.3709,80.2025 121.1619,82.6445 C118.5509,87.9355 116.2669,92.7805 114.1799,97.4565 C112.2919,101.6905 110.5019,106.0045 108.8539,110.2955 L108.8539,110.2955 L73.3389,90.1655 L68.8929,87.4985 C77.2119,75.6825 102.0669,41.9295 109.5029,33.9605 C111.4879,31.8315 113.5189,29.8285 115.7069,28.0465 C117.9389,26.2295 120.6499,24.9195 123.4629,23.6355 C134.7609,18.4755 159.3309,7.2165 169.4109,2.7145 Z" id="mcfit-logo"></path>
        </g>
    </g>
</svg>