<?xml version="1.0" standalone="no"?>
<!DOCTYPE svg PUBLIC "-//W3C//DTD SVG 20010904//EN"
 "http://www.w3.org/TR/2001/REC-SVG-20010904/DTD/svg10.dtd">
<svg version="1.0" xmlns="http://www.w3.org/2000/svg"
 width="16.000000pt" height="16.000000pt" viewBox="0 0 16.000000 16.000000"
 preserveAspectRatio="xMidYMid meet">
<metadata>
Created by potrace 1.11, written by Peter Selinger 2001-2013
</metadata>
<g transform="translate(0.000000,16.000000) scale(0.004000,-0.004000)"
fill="#000000" stroke="none">
<path d="M0 2000 l0 -2000 2000 0 2000 0 0 2000 0 2000 -2000 0 -2000 0 0
-2000z m3247 1515 c55 -67 99 -189 137 -375 50 -251 69 -441 97 -995 18 -377
4 -982 -26 -1113 -10 -43 -52 -28 -150 54 -49 41 -133 110 -185 154 -52 43
-111 93 -131 112 -19 18 -62 55 -95 82 -125 105 -149 141 -222 336 -11 30 -23
66 -27 80 -4 14 -12 34 -19 45 -7 11 -18 40 -25 65 -7 25 -17 50 -21 55 -4 6
-11 26 -15 45 -4 19 -14 44 -21 55 -8 11 -14 26 -14 33 0 8 -7 28 -15 45 -18
39 -61 162 -69 200 -15 65 -46 17 -191 -298 -12 -27 -34 -76 -49 -107 -14 -31
-26 -63 -26 -71 0 -8 -7 -20 -15 -27 -8 -7 -15 -18 -15 -24 0 -11 52 -56 65
-56 3 0 38 -24 78 -53 40 -29 86 -61 102 -71 50 -31 189 -178 209 -220 26 -55
18 -154 -18 -220 -57 -108 -134 -187 -309 -321 -118 -91 -119 -92 -227 -132
-36 -14 -126 -49 -200 -78 -74 -29 -152 -58 -172 -65 -21 -6 -40 -16 -43 -21
-4 -5 -14 -9 -23 -9 -10 0 -35 -9 -57 -20 -22 -11 -46 -20 -55 -20 -9 0 -24
-6 -35 -14 -11 -7 -36 -18 -55 -24 -19 -6 -73 -27 -120 -47 -116 -50 -220 -71
-280 -56 -65 17 -85 34 -115 93 -25 50 -26 57 -22 187 4 134 17 213 66 395 11
43 25 84 30 90 5 6 13 29 17 51 4 22 13 49 19 60 7 11 16 31 20 45 15 53 158
351 187 389 30 40 22 62 -44 127 -92 88 -138 125 -149 119 -5 -4 -9 -57 -9
-120 0 -63 -4 -124 -9 -137 -7 -18 -221 -266 -304 -353 -7 -7 -43 -49 -82 -94
-69 -80 -91 -93 -125 -71 -13 8 -15 70 -15 462 0 410 2 460 19 530 15 60 26
84 52 109 l33 32 305 5 c344 5 320 9 508 -85 48 -23 92 -43 98 -43 10 0 59 65
185 245 118 169 313 421 408 527 72 81 193 188 213 188 5 0 32 12 59 25 28 14
55 25 61 25 6 0 17 7 24 15 7 8 19 15 26 15 8 0 51 18 96 39 46 21 93 42 105
45 11 4 27 13 33 21 7 8 20 15 30 15 10 0 49 15 86 34 38 19 96 46 129 61 33
15 76 35 95 46 27 15 51 19 109 16 68 -2 75 -5 98 -32z"/>
</g>
</svg>
